<svg id="Capa_1" enable-background="new 0 0 512 512"  viewBox="0 0 512 512"  xmlns="http://www.w3.org/2000/svg"><g><path d="m331.788 416.18c5.69-7.43 11.6-14.97 17.32-22.26 30.17-38.46 61.36-78.23 78.39-125.5 12.52-34.79 17.34-71.01 13.94-104.76-3.33-33.09-14.55-64.04-32.44-89.49-33.62-47.83-87.939-74.17-152.97-74.17-39.59 0-74.81 9.52-104.7 28.29-28.01 17.59-50.25 43.13-64.32 73.87-1.73 3.76-.07 8.21 3.7 9.94 3.76 1.72 8.21.07 9.94-3.7 27.17-59.36 83.8-93.4 155.38-93.4 60 0 109.97 24.08 140.7 67.8 34.31 48.82 40.38 114.63 16.65 180.54-16.2 45-46.64 83.8-76.07 121.33-5.69 7.26-11.58 14.76-17.27 22.19l-23.47 26.68-12.61 14.33-3.01 3.42c-7.68 8.73-16.3 13.34-24.94 13.34-8.63 0-17.25-4.61-24.93-13.34l-3.01-3.42-12.61-14.33-23.47-26.68c-5.67-7.4-11.54-14.88-17.21-22.11-29.44-37.55-59.89-76.38-76.11-121.41-15.15-42.06-18.21-84.76-8.87-123.47.97-4.03-1.5-8.08-5.53-9.05s-8.08 1.5-9.05 5.53c-10.04 41.57-6.81 87.24 9.34 132.07 17.04 47.3 48.24 87.1 78.42 125.58 5.7 7.27 11.59 14.78 17.25 22.18.11.14.22.27.33.4l16.27 18.49c-16.25 1.63-31.24 3.94-44.26 6.86-32.4 7.28-48.14 17.16-48.14 30.19 0 13.04 15.74 22.92 48.14 30.2 27.79 6.24 64.53 9.68 103.46 9.68 38.92 0 75.66-3.44 103.46-9.68 32.39-7.28 48.14-17.16 48.14-30.2 0-13.03-15.75-22.91-48.14-30.19-13.03-2.93-28.02-5.23-44.29-6.86l16.27-18.49c.111-.13.22-.26.32-.4zm23.061 40.09c30.54 6.68 37.57 14.21 37.78 15.84-.21 1.66-7.24 9.19-37.78 15.87-26.59 5.82-61.69 9.02-98.82 9.02-37.14 0-72.23-3.2-98.82-9.02-30.54-6.68-37.57-14.21-37.78-15.84.21-1.66 7.24-9.19 37.78-15.87 14.99-3.28 32.67-5.73 51.9-7.24l10.71 12.17c10.61 12.06 23.12 18.43 36.19 18.43s25.59-6.37 36.2-18.43l10.71-12.17c19.24 1.51 36.94 3.96 51.93 7.24z"/><path d="m357.272 87.338c-55.836-54.787-146.686-54.787-202.52 0-27.09 26.582-42.01 61.935-42.01 99.546 0 37.61 14.92 72.963 42.012 99.546 27.917 27.378 64.586 41.067 101.257 41.067 36.671-.001 73.344-13.69 101.262-41.069 46.199-45.351 55.387-115.574 22.342-170.771-2.128-3.556-6.733-4.71-10.287-2.582-3.554 2.127-4.71 6.733-2.582 10.287 29.472 49.229 21.256 111.882-19.978 152.358-25.024 24.541-57.886 36.811-90.757 36.808-32.862-.003-65.735-12.271-90.753-36.807-24.192-23.738-37.516-55.288-37.516-88.838 0-33.551 13.323-65.102 37.516-88.839 50.041-49.104 131.467-49.104 181.508 0 2.955 2.9 7.704 2.857 10.606-.101 2.901-2.956 2.856-7.704-.1-10.605z"/><path d="m179.563 203.467-16.623-.028c-.005 0-.009 0-.013 0-4.136 0-7.493 3.35-7.5 7.487-.007 4.142 3.345 7.506 7.487 7.513l16.636.028c11.73 0 20.577-9.452 20.577-21.987v-47.089c0-4.143-3.357-7.5-7.5-7.5h-20.056c-4.143 0-7.5 3.357-7.5 7.5s3.357 7.5 7.5 7.5h12.556v39.589c.001.714-.155 6.987-5.564 6.987z"/><path d="m249.928 141.89c-14.93 0-27.07 12.13-27.07 27.03v22.49c0 14.92 12.14 27.06 27.07 27.06h3.55c14.91 0 27.04-12.14 27.04-27.06v-22.49c0-14.9-12.13-27.03-27.04-27.03zm15.59 27.03v22.49c0 6.65-5.4 12.06-12.04 12.06h-3.55c-6.66 0-12.07-5.41-12.07-12.06v-22.49c0-6.63 5.41-12.03 12.07-12.03h3.55c6.64 0 12.04 5.4 12.04 12.03z"/><path d="m351.119 163.51c0-11.92-9.7-21.62-21.62-21.62h-17.65c-5.76 0-10.45 4.69-10.45 10.45v55.68c0 5.76 4.69 10.45 10.45 10.45h25.59c11.92 0 21.63-9.7 21.63-21.62v-2.55c0-7.78-4.13-14.61-10.32-18.42 1.52-2.95 2.37-6.28 2.37-9.82zm-34.721-6.62h13.1c3.65 0 6.62 2.97 6.62 6.62v2.55c0 3.65-2.97 6.62-6.62 6.62h-13.1zm27.671 39.96c0 3.65-2.98 6.62-6.63 6.62h-21.04v-15.79h21.04c3.65 0 6.63 2.97 6.63 6.62z"/></g></svg>